<mxfile host="app.diagrams.net" modified="2023-06-30T14:26:58.219Z" agent="Mozilla/5.0 (Windows NT 10.0; Win64; x64) AppleWebKit/537.36 (KHTML, like Gecko) Chrome/114.0.0.0 Safari/537.36 Edg/114.0.1823.58" etag="d2RthO3PQcoPulLPlX22" version="21.5.2" type="github">
  <diagram name="第 1 页" id="_trxFFlhMI-CrugrcI_u">
    <mxGraphModel dx="746" dy="508" grid="1" gridSize="10" guides="1" tooltips="1" connect="1" arrows="1" fold="1" page="1" pageScale="1" pageWidth="827" pageHeight="1169" math="0" shadow="0">
      <root>
        <mxCell id="0" />
        <mxCell id="1" parent="0" />
      </root>
    </mxGraphModel>
  </diagram>
</mxfile>
